<svg xmlns="http://www.w3.org/2000/svg" width="119.812" height="119.38" viewBox="0 0 119.812 119.38">
  <defs>
    <style>
      .cls-1 {
        fill: #e0b27e;
        fill-rule: evenodd;
      }
    </style>
  </defs>
  <path id="Layer_28" data-name="Layer 28" class="cls-1" d="M395.908,7519.99a59.69,59.69,0,1,0,59.9,59.69A59.793,59.793,0,0,0,395.908,7519.99Zm17.853,95.75a18.161,18.161,0,0,0,18.178-18.11v-35.58a18.169,18.169,0,0,0-18.178-18.12H378.055a18.171,18.171,0,0,0-18.178,18.12v35.58a18.162,18.162,0,0,0,18.178,18.11h35.706Zm0-63.99a10.33,10.33,0,0,1,10.337,10.3v35.58a10.33,10.33,0,0,1-10.337,10.3H378.055a10.329,10.329,0,0,1-10.335-10.3v-35.58a10.329,10.329,0,0,1,10.335-10.3h35.706Zm-17.853,46.58a18.5,18.5,0,1,1,18.56-18.49A18.543,18.543,0,0,1,395.908,7598.33Zm0-29.17a10.68,10.68,0,1,0,10.716,10.68A10.712,10.712,0,0,0,395.908,7569.16Zm19.157-3.99a4.375,4.375,0,1,1,4.391-4.38A4.388,4.388,0,0,1,415.065,7565.17Z" transform="translate(-336 -7520)"/>
</svg>
