<svg xmlns="http://www.w3.org/2000/svg" xmlns:xlink="http://www.w3.org/1999/xlink"><defs>
    <style>
      .cls-1 {
        fill: #e0b27e;
        fill-rule: evenodd;
      }
    </style>
  
    <style>
      .cls-1 {
        fill: #e0b27e;
        fill-rule: evenodd;
      }
    </style>
  
    <style>
      .cls-1 {
        fill: #e0b27e;
        fill-rule: evenodd;
      }
    </style>
  
    <style>
      .cls-1 {
        fill: #e0b27e;
        fill-rule: evenodd;
      }
    </style>
  </defs><symbol id="f" viewBox="0 0 119.812 119.38">
  
  <path id="Layer_30" data-name="Layer 30" class="cls-1" d="M243.117,7518.63a59.685,59.685,0,1,1-59.9,59.68A59.817,59.817,0,0,1,243.117,7518.63Zm16.509,36.51v-13.31l-11.995-.05c-13.312,0-16.337,9.94-16.337,16.28v8.88h-7.7v13.71h7.7v39.02h16.193v-39.02h10.688l1.415-13.7h-12.1v-8.07c0-3.03,2.007-3.74,3.435-3.74h8.7Z" transform="translate(-183.219 -7518.62)"/>
</symbol><symbol id="i" viewBox="0 0 119.812 119.38">
  
  <path id="Layer_28" data-name="Layer 28" class="cls-1" d="M395.908,7519.99a59.69,59.69,0,1,0,59.9,59.69A59.793,59.793,0,0,0,395.908,7519.99Zm17.853,95.75a18.161,18.161,0,0,0,18.178-18.11v-35.58a18.169,18.169,0,0,0-18.178-18.12H378.055a18.171,18.171,0,0,0-18.178,18.12v35.58a18.162,18.162,0,0,0,18.178,18.11h35.706Zm0-63.99a10.33,10.33,0,0,1,10.337,10.3v35.58a10.33,10.33,0,0,1-10.337,10.3H378.055a10.329,10.329,0,0,1-10.335-10.3v-35.58a10.329,10.329,0,0,1,10.335-10.3h35.706Zm-17.853,46.58a18.5,18.5,0,1,1,18.56-18.49A18.543,18.543,0,0,1,395.908,7598.33Zm0-29.17a10.68,10.68,0,1,0,10.716,10.68A10.712,10.712,0,0,0,395.908,7569.16Zm19.157-3.99a4.375,4.375,0,1,1,4.391-4.38A4.388,4.388,0,0,1,415.065,7565.17Z" transform="translate(-336 -7520)"/>
</symbol><symbol id="t" viewBox="0 0 119.812 119.38">
  
  <path id="Layer_29" data-name="Layer 29" class="cls-1" d="M548.117,7519.99a59.69,59.69,0,1,1-59.9,59.69A59.819,59.819,0,0,1,548.117,7519.99Zm36.69,42.9a28.691,28.691,0,0,1-8.224,2.24,14.339,14.339,0,0,0,6.3-7.89,28.866,28.866,0,0,1-9.092,3.46,14.333,14.333,0,0,0-24.771,9.76,14.116,14.116,0,0,0,.373,3.25,40.656,40.656,0,0,1-29.512-14.91,14.251,14.251,0,0,0,4.43,19.05,14.221,14.221,0,0,1-6.484-1.78c0,0.06,0,.12,0,0.18a14.293,14.293,0,0,0,11.486,13.99,14.637,14.637,0,0,1-3.771.5,14.047,14.047,0,0,1-2.694-.26,14.317,14.317,0,0,0,13.375,9.91,28.777,28.777,0,0,1-17.784,6.11,29.579,29.579,0,0,1-3.413-.2,40.6,40.6,0,0,0,21.945,6.41c26.335,0,40.737-21.74,40.737-40.6,0-.61-0.014-1.23-0.041-1.84A28.977,28.977,0,0,0,584.807,7562.89Z" transform="translate(-488.219 -7520)"/>
</symbol><symbol id="vk" viewBox="0 0 119.812 119.38">
  
  <path id="Layer_31" data-name="Layer 31" class="cls-1" d="M90.908,7518.63a59.685,59.685,0,1,1-59.9,59.68A59.817,59.817,0,0,1,90.908,7518.63Zm-2.263,85.86h4.7a3.944,3.944,0,0,0,2.145-.93,3.432,3.432,0,0,0,.646-2.06s-0.092-6.29,2.836-7.21c2.886-.91,6.592,6.07,10.521,8.76,2.97,2.03,5.227,1.59,5.227,1.59l10.5-.15s5.5-.33,2.889-4.64c-0.213-.35-1.517-3.18-7.809-9-6.586-6.1-5.7-5.11,2.229-15.65,4.832-6.41,6.763-10.33,6.16-12.01-0.576-1.6-4.129-1.18-4.129-1.18l-11.827.08a2.673,2.673,0,0,0-1.526.27,3.3,3.3,0,0,0-1.045,1.26,67.817,67.817,0,0,1-4.368,9.19c-5.266,8.91-7.372,9.38-8.232,8.83-2-1.29-1.5-5.18-1.5-7.95,0-8.63,1.314-12.23-2.559-13.17a20.218,20.218,0,0,0-5.519-.54c-4.22-.05-7.791.01-9.814,1-1.345.65-2.383,2.12-1.751,2.2a5.36,5.36,0,0,1,3.491,1.75c1.212,1.64,1.169,5.33,1.169,5.33s0.7,10.17-1.626,11.43c-1.594.87-3.781-.9-8.476-8.98a75.771,75.771,0,0,1-4.222-8.72,3.521,3.521,0,0,0-.975-1.32,4.988,4.988,0,0,0-1.817-.73l-11.238.08a3.823,3.823,0,0,0-2.306.77c-0.551.65-.044,2-0.044,2s8.8,20.51,18.76,30.85C78.272,7605.12,88.646,7604.49,88.646,7604.49Z" transform="translate(-31 -7518.62)"/>
</symbol></svg>