<svg xmlns="http://www.w3.org/2000/svg" width="119.812" height="119.38" viewBox="0 0 119.812 119.38">
  <defs>
    <style>
      .cls-1 {
        fill: #e0b27e;
        fill-rule: evenodd;
      }
    </style>
  </defs>
  <path id="Layer_31" data-name="Layer 31" class="cls-1" d="M90.908,7518.63a59.685,59.685,0,1,1-59.9,59.68A59.817,59.817,0,0,1,90.908,7518.63Zm-2.263,85.86h4.7a3.944,3.944,0,0,0,2.145-.93,3.432,3.432,0,0,0,.646-2.06s-0.092-6.29,2.836-7.21c2.886-.91,6.592,6.07,10.521,8.76,2.97,2.03,5.227,1.59,5.227,1.59l10.5-.15s5.5-.33,2.889-4.64c-0.213-.35-1.517-3.18-7.809-9-6.586-6.1-5.7-5.11,2.229-15.65,4.832-6.41,6.763-10.33,6.16-12.01-0.576-1.6-4.129-1.18-4.129-1.18l-11.827.08a2.673,2.673,0,0,0-1.526.27,3.3,3.3,0,0,0-1.045,1.26,67.817,67.817,0,0,1-4.368,9.19c-5.266,8.91-7.372,9.38-8.232,8.83-2-1.29-1.5-5.18-1.5-7.95,0-8.63,1.314-12.23-2.559-13.17a20.218,20.218,0,0,0-5.519-.54c-4.22-.05-7.791.01-9.814,1-1.345.65-2.383,2.12-1.751,2.2a5.36,5.36,0,0,1,3.491,1.75c1.212,1.64,1.169,5.33,1.169,5.33s0.7,10.17-1.626,11.43c-1.594.87-3.781-.9-8.476-8.98a75.771,75.771,0,0,1-4.222-8.72,3.521,3.521,0,0,0-.975-1.32,4.988,4.988,0,0,0-1.817-.73l-11.238.08a3.823,3.823,0,0,0-2.306.77c-0.551.65-.044,2-0.044,2s8.8,20.51,18.76,30.85C78.272,7605.12,88.646,7604.49,88.646,7604.49Z" transform="translate(-31 -7518.62)"/>
</svg>
